<?xml version="1.0" encoding="UTF-8"?>
<svg width="363px" height="80px" viewBox="0 0 363 80" version="1.1" xmlns="http://www.w3.org/2000/svg" xmlns:xlink="http://www.w3.org/1999/xlink">
    <!-- Generator: Sketch 48.2 (47327) - http://www.bohemiancoding.com/sketch -->
    <title>assets/android_export_status_bar</title>
    <desc>Created with Sketch.</desc>
    <defs></defs>
    <g id="assets_export" stroke="none" stroke-width="1" fill="none" fill-rule="evenodd">
        <g id="assets/android_export_status_bar" fill="#FFFFFF">
            <g id="Group">
                <rect id="Rectangle-Copy-6" fill-opacity="0" x="0" y="0" width="362.680965" height="80"></rect>
                <g id="app-bar-contents" transform="translate(20.134048, 43.000000)">
                    <g id="more" transform="translate(315.945710, 1.000000)">
                        <path d="M2.23357909,12 C3.33357909,12 4.23357909,12.9 4.23357909,14 C4.23357909,15.1 3.33357909,16 2.23357909,16 C1.13357909,16 0.233579088,15.1 0.233579088,14 C0.233579088,12.9 1.13357909,12 2.23357909,12 L2.23357909,12 Z M2.23357909,10 C1.13357909,10 0.233579088,9.1 0.233579088,8 C0.233579088,6.9 1.13357909,6 2.23357909,6 C3.33357909,6 4.23357909,6.9 4.23357909,8 C4.23357909,9.1 3.33357909,10 2.23357909,10 L2.23357909,10 Z M2.23357909,4 C1.13357909,4 0.233579088,3.1 0.233579088,2 C0.233579088,0.9 1.13357909,0 2.23357909,0 C3.33357909,0 4.23357909,0.9 4.23357909,2 C4.23357909,3.1 3.33357909,4 2.23357909,4 L2.23357909,4 Z" id="Shape" transform="translate(2.233579, 8.000000) scale(1, -1) translate(-2.233579, -8.000000) "></path>
                    </g>
                    <path d="M66.3284915,10.2617188 C66.3284915,11.6549549 66.0876085,12.8772734 65.6058353,13.9287109 C65.124062,14.9801485 64.4355924,15.7874321 63.5404056,16.3505859 C62.6452188,16.9137398 61.6149557,17.1953125 60.4495853,17.1953125 C59.2972358,17.1953125 58.2702278,16.9137398 57.3685306,16.3505859 C56.4668334,15.7874321 55.7702258,14.9850312 55.2786869,13.9433594 C54.7871479,12.9016875 54.538127,11.7005276 54.5316165,10.3398438 L54.5316165,9.5390625 C54.5316165,8.15233682 54.7773823,6.92839072 55.2689212,5.8671875 C55.7604601,4.80598428 56.4538126,3.99381792 57.3489994,3.43066406 C58.2441861,2.86751021 59.2711941,2.5859375 60.430054,2.5859375 C61.588914,2.5859375 62.615922,2.86425503 63.5111087,3.42089844 C64.4062955,3.97754185 65.0980203,4.77831509 65.586304,5.82324219 C66.0745877,6.86816929 66.3219811,8.08397744 66.3284915,9.47070312 L66.3284915,10.2617188 Z M63.8577884,9.51953125 C63.8577884,7.94400254 63.5599398,6.73633232 62.9642337,5.89648438 C62.3685276,5.05663643 61.5238095,4.63671875 60.430054,4.63671875 C59.3623404,4.63671875 58.5273878,5.05500884 57.9251712,5.89160156 C57.3229547,6.72819429 57.0153406,7.91145068 57.0023197,9.44140625 L57.0023197,10.2617188 C57.0023197,11.8242266 57.3066786,13.0318968 57.9154056,13.8847656 C58.5241326,14.7376345 59.3688507,15.1640625 60.4495853,15.1640625 C61.5433408,15.1640625 62.3848037,14.7474 62.9739994,13.9140625 C63.563195,13.080725 63.8577884,11.8632893 63.8577884,10.2617188 L63.8577884,9.51953125 Z M77.5198978,17 L75.1468509,17 L75.1468509,8.34765625 L71.0257572,8.34765625 L71.0257572,17 L68.6527103,17 L68.6527103,6.43359375 L77.5198978,6.43359375 L77.5198978,17 Z M89.023804,6.43359375 L89.023804,17 L86.6507572,17 L86.6507572,8.34765625 L83.6624759,8.34765625 L83.4671634,12.0292969 C83.3434649,13.8001391 83.003299,15.0712852 82.4466556,15.8427734 C81.8900122,16.6142617 81.0387837,17 79.8929447,17 L79.1605228,17 L79.1507572,15.0273438 L79.6390384,14.9785156 C80.1598744,14.9069007 80.5391023,14.589521 80.7767337,14.0263672 C81.0143651,13.4632133 81.1657308,12.4362054 81.2308353,10.9453125 L81.4261478,6.43359375 L89.023804,6.43359375 Z M97.8616947,17 C97.7575275,16.7981761 97.6663826,16.4694033 97.5882572,16.0136719 C96.8330451,16.8014362 95.9085751,17.1953125 94.8148197,17.1953125 C93.7536164,17.1953125 92.8877397,16.8925812 92.2171634,16.2871094 C91.5465871,15.6816376 91.211304,14.9329472 91.211304,14.0410156 C91.211304,12.9147079 91.6295941,12.0504587 92.4661869,11.4482422 C93.3027796,10.8460256 94.4990567,10.5449219 96.055054,10.5449219 L97.5101322,10.5449219 L97.5101322,9.8515625 C97.5101322,9.30468477 97.3571389,8.86686362 97.0511478,8.53808594 C96.7451567,8.20930825 96.2796665,8.04492188 95.6546634,8.04492188 C95.1142961,8.04492188 94.6715922,8.18001167 94.3265384,8.45019531 C93.9814846,8.72037896 93.8089603,9.0638 93.8089603,9.48046875 L91.4359134,9.48046875 C91.4359134,8.90103877 91.6279688,8.359052 92.0120853,7.85449219 C92.3962018,7.34993237 92.9186575,6.95442852 93.5794681,6.66796875 C94.2402787,6.38150898 94.977576,6.23828125 95.7913822,6.23828125 C97.0283675,6.23828125 98.0146858,6.54915054 98.7503665,7.17089844 C99.4860473,7.79264634 99.8636477,8.66666104 99.883179,9.79296875 L99.883179,14.5585938 C99.883179,15.5091193 100.016641,16.2675753 100.28357,16.8339844 L100.28357,17 L97.8616947,17 Z M95.2542728,15.2910156 C95.7230251,15.2910156 96.1641015,15.1770845 96.577515,14.9492188 C96.9909285,14.721353 97.3017978,14.4153665 97.5101322,14.03125 L97.5101322,12.0390625 L96.2308353,12.0390625 C95.3519246,12.0390625 94.691124,12.1920558 94.2484134,12.4980469 C93.8057029,12.804038 93.5843509,13.2369764 93.5843509,13.796875 C93.5843509,14.2526064 93.7357166,14.6155585 94.0384525,14.8857422 C94.3411884,15.1559258 94.7464577,15.2910156 95.2542728,15.2910156 Z M110.52771,8.31835938 L107.099976,8.31835938 L107.099976,17 L104.726929,17 L104.726929,8.31835938 L101.338257,8.31835938 L101.338257,6.43359375 L110.52771,6.43359375 L110.52771,8.31835938 Z M118.262085,17 C118.157918,16.7981761 118.066773,16.4694033 117.988648,16.0136719 C117.233436,16.8014362 116.308966,17.1953125 115.21521,17.1953125 C114.154007,17.1953125 113.28813,16.8925812 112.617554,16.2871094 C111.946978,15.6816376 111.611695,14.9329472 111.611695,14.0410156 C111.611695,12.9147079 112.029985,12.0504587 112.866577,11.4482422 C113.70317,10.8460256 114.899447,10.5449219 116.455445,10.5449219 L117.910523,10.5449219 L117.910523,9.8515625 C117.910523,9.30468477 117.75753,8.86686362 117.451538,8.53808594 C117.145547,8.20930825 116.680057,8.04492188 116.055054,8.04492188 C115.514687,8.04492188 115.071983,8.18001167 114.726929,8.45019531 C114.381875,8.72037896 114.209351,9.0638 114.209351,9.48046875 L111.836304,9.48046875 C111.836304,8.90103877 112.028359,8.359052 112.412476,7.85449219 C112.796592,7.34993237 113.319048,6.95442852 113.979859,6.66796875 C114.640669,6.38150898 115.377967,6.23828125 116.191773,6.23828125 C117.428758,6.23828125 118.415076,6.54915054 119.150757,7.17089844 C119.886438,7.79264634 120.264038,8.66666104 120.28357,9.79296875 L120.28357,14.5585938 C120.28357,15.5091193 120.417032,16.2675753 120.68396,16.8339844 L120.68396,17 L118.262085,17 Z M115.654663,15.2910156 C116.123416,15.2910156 116.564492,15.1770845 116.977906,14.9492188 C117.391319,14.721353 117.702188,14.4153665 117.910523,14.03125 L117.910523,12.0390625 L116.631226,12.0390625 C115.752315,12.0390625 115.091515,12.1920558 114.648804,12.4980469 C114.206093,12.804038 113.984742,13.2369764 113.984742,13.796875 C113.984742,14.2526064 114.136107,14.6155585 114.438843,14.8857422 C114.741579,15.1559258 115.146848,15.2910156 115.654663,15.2910156 Z" id="Оплата"></path>
                    <g id="menu" transform="translate(0.000000, 3.000000)">
                        <path d="M0.900469169,12 L18.9004692,12 L18.9004692,10 L0.900469169,10 L0.900469169,12 L0.900469169,12 Z M0.900469169,7 L18.9004692,7 L18.9004692,5 L0.900469169,5 L0.900469169,7 L0.900469169,7 Z M0.900469169,0 L0.900469169,2 L18.9004692,2 L18.9004692,0 L0.900469169,0 L0.900469169,0 Z" id="Shape"></path>
                    </g>
                    <g id="search" transform="translate(266.343834, 0.000000)">
                        <path d="M13.4045842,6.491 L12.6105842,6.491 L12.3345842,6.765 C13.3095842,7.902 13.9025842,9.376 13.9025842,10.991 C13.9025842,14.581 10.9925842,17.491 7.4025842,17.491 C3.8125842,17.491 0.902584199,14.581 0.902584199,10.991 C0.902584199,7.401 3.8125842,4.491 7.4025842,4.491 C9.0175842,4.491 10.4905842,5.083 11.6275842,6.057 L11.9035842,5.783 L11.9035842,4.991 L16.9015842,0 L18.3925842,1.491 L13.4045842,6.491 L13.4045842,6.491 Z M7.4025842,6.491 C4.9165842,6.491 2.9025842,8.505 2.9025842,10.991 C2.9025842,13.476 4.9165842,15.491 7.4025842,15.491 C9.8875842,15.491 11.9025842,13.476 11.9025842,10.991 C11.9025842,8.505 9.8875842,6.491 7.4025842,6.491 L7.4025842,6.491 Z" id="Shape" transform="translate(9.647584, 8.745500) scale(1, -1) translate(-9.647584, -8.745500) "></path>
                    </g>
                </g>
                <g id="Material_AP/Component/StatusBar/white">
                    <path d="M27.5,20 C24.4624339,20 22,17.5375661 22,14.5 C22,11.4624339 24.4624339,9 27.5,9 L27.5,11.5191944 C25.8537465,11.5191944 24.5191944,12.8537465 24.5191944,14.5 C24.5191944,16.1462535 25.8537465,17.4808056 27.5,17.4808056 C29.1462535,17.4808056 30.4808056,16.1462535 30.4808056,14.5 L33,14.5 C33,17.5375661 30.5375661,20 27.5,20 Z" id="Combined-Shape" fill-rule="nonzero"></path>
                    <g id="Group" stroke-width="1" fill-rule="evenodd" transform="translate(258.637500, 9.000000)">
                        <path d="M49.6999992,1.39999998 L49.6999992,0 L53.1999991,0 L53.1999991,1.39999998 L54.5999991,1.39999998 L54.5999991,10.4999998 L48.2999992,10.4999998 L48.2999992,1.39999998 L49.6999992,1.39999998 Z M49.6999992,2.09999996 L48.9999992,2.09999996 L48.9999992,9.79999983 L53.8999991,9.79999983 L53.8999991,2.09999996 L53.1999991,2.09999996 L49.6999992,2.09999996 Z M49.6999992,2.79999995 L53.1999991,2.79999995 L53.1999991,9.09999985 L49.6999992,9.09999985 L49.6999992,2.79999995 Z" id="Combined-Shape" fill-rule="nonzero"></path>
                        <path d="M64.8867176,10.4999998 L63.8695302,10.4999998 L63.8695302,3.75703119 L61.8296864,4.50624992 L61.8296864,3.58749994 L64.7281239,2.49921871 L64.8867176,2.49921871 L64.8867176,10.4999998 Z M73.0679675,10.4999998 L67.8507801,10.4999998 L67.8507801,9.77265608 L70.60703,6.71015614 C71.0153654,6.247133 71.2970032,5.87070447 71.4519519,5.58085928 C71.6069006,5.29101409 71.6843738,4.9911473 71.6843738,4.68124992 C71.6843738,4.26562285 71.5585938,3.92474085 71.30703,3.65859369 C71.0554663,3.39244653 70.720053,3.25937494 70.3007801,3.25937494 C69.7976525,3.25937494 69.4066408,3.40247247 69.1277332,3.68867181 C68.8488256,3.97487115 68.7093738,4.37317446 68.7093738,4.88359367 L67.6976551,4.88359367 C67.6976551,4.15077752 67.9337204,3.55833553 68.4058582,3.10624995 C68.877996,2.65416436 69.5096303,2.42812496 70.3007801,2.42812496 C71.0408879,2.42812496 71.6260383,2.62226364 72.0562488,3.01054682 C72.4864592,3.39883001 72.7015613,3.91562171 72.7015613,4.56093742 C72.7015613,5.34479549 72.2020871,6.27811948 71.2031238,7.36093737 L69.0703113,9.67421859 L73.0679675,9.67421859 L73.0679675,10.4999998 Z M74.2109362,9.96953108 C74.2109362,9.79453021 74.2628888,9.64869834 74.3667956,9.53203109 C74.4707024,9.41536384 74.6265602,9.35703109 74.8343737,9.35703109 C75.0421873,9.35703109 75.199868,9.41536384 75.3074206,9.53203109 C75.4149732,9.64869834 75.4687487,9.79453021 75.4687487,9.96953108 C75.4687487,10.1372402 75.4149732,10.2776034 75.3074206,10.3906248 C75.199868,10.5036462 75.0421873,10.5601561 74.8343737,10.5601561 C74.6265602,10.5601561 74.4707024,10.5036462 74.3667956,10.3906248 C74.2628888,10.2776034 74.2109362,10.1372402 74.2109362,9.96953108 Z M74.216405,5.14062491 C74.216405,4.96562404 74.2683576,4.81979217 74.3722644,4.70312492 C74.4761711,4.58645767 74.6320289,4.52812492 74.8398425,4.52812492 C75.047656,4.52812492 75.2053367,4.58645767 75.3128893,4.70312492 C75.420442,4.81979217 75.4742175,4.96562404 75.4742175,5.14062491 C75.4742175,5.30833408 75.420442,5.44869726 75.3128893,5.56171866 C75.2053367,5.67474005 75.047656,5.7312499 74.8398425,5.7312499 C74.6320289,5.7312499 74.4761711,5.67474005 74.3722644,5.56171866 C74.2683576,5.44869726 74.216405,5.30833408 74.216405,5.14062491 Z M81.1234361,7.82578112 L82.2281236,7.82578112 L82.2281236,8.65156235 L81.1234361,8.65156235 L81.1234361,10.4999998 L80.1062486,10.4999998 L80.1062486,8.65156235 L76.4804674,8.65156235 L76.4804674,8.05546861 L80.0460924,2.53749996 L81.1234361,2.53749996 L81.1234361,7.82578112 Z M77.6289049,7.82578112 L80.1062486,7.82578112 L80.1062486,3.92109368 L79.9859361,4.13984368 L77.6289049,7.82578112 Z M88.3585922,10.4999998 L83.1414048,10.4999998 L83.1414048,9.77265608 L85.8976548,6.71015614 C86.3059902,6.247133 86.587628,5.87070447 86.7425766,5.58085928 C86.8975253,5.29101409 86.9749985,4.9911473 86.9749985,4.68124992 C86.9749985,4.26562285 86.8492185,3.92474085 86.5976548,3.65859369 C86.346091,3.39244653 86.0106777,3.25937494 85.5914048,3.25937494 C85.0882773,3.25937494 84.6972656,3.40247247 84.4183579,3.68867181 C84.1394503,3.97487115 83.9999986,4.37317446 83.9999986,4.88359367 L82.9882798,4.88359367 C82.9882798,4.15077752 83.2243452,3.55833553 83.6964829,3.10624995 C84.1686207,2.65416436 84.800255,2.42812496 85.5914048,2.42812496 C86.3315126,2.42812496 86.916663,2.62226364 87.3468735,3.01054682 C87.777084,3.39883001 87.992186,3.91562171 87.992186,4.56093742 C87.992186,5.34479549 87.4927118,6.27811948 86.4937485,7.36093737 L84.3609361,9.67421859 L88.3585922,9.67421859 L88.3585922,10.4999998 Z" id="12:42"></path>
                        <path d="M21.7164059,10.4999998 L20.6992184,10.4999998 L20.6992184,3.75703119 L18.6593747,4.50624992 L18.6593747,3.58749994 L21.5578121,2.49921871 L21.7164059,2.49921871 L21.7164059,10.4999998 Z M29.673437,7.10390613 C29.673437,8.28880787 29.4710953,9.1692678 29.0664058,9.74531233 C28.6617162,10.3213569 28.0291705,10.6093748 27.1687495,10.6093748 C26.3192661,10.6093748 25.6903662,10.327737 25.2820308,9.76445296 C24.8736955,9.2011689 24.6622392,8.35990129 24.6476558,7.24062488 L24.6476558,5.88984365 C24.6476558,4.71952532 24.8499976,3.85000278 25.2546871,3.28124994 C25.6593766,2.71249711 26.2937452,2.42812496 27.157812,2.42812496 C28.0145871,2.42812496 28.64531,2.70247117 29.0499995,3.25117182 C29.454689,3.79987247 29.6624994,4.64660878 29.673437,5.79140615 L29.673437,7.10390613 Z M28.6617183,5.7203124 C28.6617183,4.8635373 28.541407,4.2391946 28.3007808,3.84726556 C28.0601546,3.45533652 27.6791688,3.25937494 27.157812,3.25937494 C26.6401011,3.25937494 26.2627612,3.45442507 26.0257808,3.84453118 C25.7888005,4.2346373 25.6666663,4.83437087 25.6593746,5.6437499 L25.6593746,7.26249988 C25.6593746,8.12292083 25.7842431,8.75820093 26.0339839,9.16835922 C26.2837248,9.57851751 26.6619762,9.78359358 27.1687495,9.78359358 C27.6682312,9.78359358 28.039191,9.59036635 28.2816401,9.20390609 C28.5240893,8.81744583 28.6507807,8.20859777 28.6617183,7.37734362 L28.6617183,5.7203124 Z M35.9624994,7.10390613 C35.9624994,8.28880787 35.7601577,9.1692678 35.3554681,9.74531233 C34.9507786,10.3213569 34.3182329,10.6093748 33.4578119,10.6093748 C32.6083285,10.6093748 31.9794286,10.327737 31.5710932,9.76445296 C31.1627578,9.2011689 30.9513016,8.35990129 30.9367182,7.24062488 L30.9367182,5.88984365 C30.9367182,4.71952532 31.1390599,3.85000278 31.5437495,3.28124994 C31.948439,2.71249711 32.5828076,2.42812496 33.4468744,2.42812496 C34.3036495,2.42812496 34.9343724,2.70247117 35.3390619,3.25117182 C35.7437514,3.79987247 35.9515618,4.64660878 35.9624994,5.79140615 L35.9624994,7.10390613 Z M34.9507807,5.7203124 C34.9507807,4.8635373 34.8304694,4.2391946 34.5898432,3.84726556 C34.349217,3.45533652 33.9682312,3.25937494 33.4468744,3.25937494 C32.9291635,3.25937494 32.5518235,3.45442507 32.3148432,3.84453118 C32.0778629,4.2346373 31.9557287,4.83437087 31.948437,5.6437499 L31.948437,7.26249988 C31.948437,8.12292083 32.0733055,8.75820093 32.3230463,9.16835922 C32.5727872,9.57851751 32.9510386,9.78359358 33.4578119,9.78359358 C33.9572936,9.78359358 34.3282534,9.59036635 34.5707025,9.20390609 C34.8131517,8.81744583 34.9398431,8.20859777 34.9507807,7.37734362 L34.9507807,5.7203124 Z M37.1710931,4.06874993 C37.1710931,3.59114338 37.3233051,3.19739733 37.6277337,2.88749995 C37.9321623,2.57760257 38.323174,2.42265621 38.8007806,2.42265621 C39.2856788,2.42265621 39.6785134,2.57851402 39.9792962,2.89023433 C40.2800789,3.20195463 40.4304681,3.60572663 40.4304681,4.10156243 L40.4304681,4.48984367 C40.4304681,4.97109607 40.278256,5.36393068 39.9738274,5.66835928 C39.6693988,5.97278788 39.2820329,6.1249999 38.8117181,6.1249999 C38.3377574,6.1249999 37.9458342,5.97278788 37.6359369,5.66835928 C37.3260395,5.36393068 37.1710931,4.95833578 37.1710931,4.45156242 L37.1710931,4.06874993 Z M37.9257806,4.48984367 C37.9257806,4.77422009 38.0059881,5.00846254 38.1664056,5.19257804 C38.3268231,5.37669354 38.5419251,5.46874991 38.8117181,5.46874991 C39.0705735,5.46874991 39.2792954,5.37942788 39.43789,5.20078116 C39.5964845,5.02213444 39.6757806,4.77786605 39.6757806,4.46796867 L39.6757806,4.06874993 C39.6757806,3.78437351 39.5973959,3.54921962 39.4406243,3.36328119 C39.2838527,3.17734277 39.0705736,3.08437495 38.8007806,3.08437495 C38.5309876,3.08437495 38.3177085,3.17734277 38.1609369,3.36328119 C38.0041652,3.54921962 37.9257806,3.79166511 37.9257806,4.09062493 L37.9257806,4.48984367 Z M41.0484368,8.5476561 C41.0484368,8.07004956 41.2006488,7.67721495 41.5050774,7.3691405 C41.809506,7.06106605 42.2005177,6.90703113 42.6781243,6.90703113 C43.1557308,6.90703113 43.547654,7.0601546 43.8539055,7.36640612 C44.160157,7.67265765 44.3132805,8.079164 44.3132805,8.58593735 L44.3132805,8.9742186 C44.3132805,9.45182514 44.1610685,9.84465975 43.8566399,10.1527342 C43.5522113,10.4608087 43.1630225,10.6148436 42.6890618,10.6148436 C42.2151011,10.6148436 41.8231779,10.4626316 41.5132805,10.158203 C41.2033832,9.85377435 41.0484368,9.44817946 41.0484368,8.9414061 L41.0484368,8.5476561 Z M41.8031243,8.9742186 C41.8031243,9.26224087 41.8833318,9.49830621 42.0437493,9.68242171 C42.2041668,9.86653721 42.4192688,9.95859358 42.6890618,9.95859358 C42.9515631,9.95859358 43.1611964,9.86836011 43.317968,9.68789046 C43.4747396,9.50742081 43.5531243,9.26224098 43.5531243,8.9523436 L43.5531243,8.5476561 C43.5531243,8.25963384 43.4738282,8.02447994 43.3152336,7.84218737 C43.1566391,7.65989479 42.9442714,7.56874987 42.6781243,7.56874987 C42.4192688,7.56874987 42.2087241,7.65898334 42.0464837,7.83945299 C41.8842433,8.01992264 41.8031243,8.26327958 41.8031243,8.5695311 L41.8031243,8.9742186 Z M39.0414056,9.89843733 L38.4671868,9.53749984 L42.355468,3.31406244 L42.9296868,3.67499994 L39.0414056,9.89843733 Z" id="100%"></path>
                        <path d="M8.39999986,10.4999998 L6.99999988,10.4999998 L6.99999988,3.93749993 L8.39999986,2.62499996 L8.39999986,10.4999998 Z M9.79999983,10.4999998 L9.79999983,1.31249998 L11.1999998,0 L11.1999998,10.4999998 L9.79999983,10.4999998 Z M5.5999999,10.4999998 L4.19999993,10.4999998 L4.19999993,6.56249989 L5.5999999,5.24999991 L5.5999999,10.4999998 Z M2.79999995,10.4999998 L0,10.4999998 L2.79999995,7.87499987 L2.79999995,10.4999998 Z" id="Combined-Shape"></path>
                    </g>
                </g>
            </g>
        </g>
    </g>
</svg>