<?xml version="1.0" encoding="UTF-8"?>
<svg width="320px" height="80px" viewBox="0 0 320 80" version="1.1" xmlns="http://www.w3.org/2000/svg" xmlns:xlink="http://www.w3.org/1999/xlink">
    <!-- Generator: Sketch 49.3 (51167) - http://www.bohemiancoding.com/sketch -->
    <title>assets/android_export_status_bar_320</title>
    <desc>Created with Sketch.</desc>
    <defs></defs>
    <g id="assets/android_export_status_bar_320" stroke="none" stroke-width="1" fill="none" fill-rule="evenodd">
        <g id="Group-2" fill="#FFFFFF">
            <g id="Group">
                <rect id="Rectangle-Copy-6" fill-opacity="0" x="9.09494702e-13" y="0" width="319.511652" height="80"></rect>
                <g id="app-bar-contents" transform="translate(16.960198, 41.000000)">
                    <g id="more" transform="translate(278.546504, 3.000000)">
                        <path d="M2.53776036,12 C3.63776036,12 4.53776036,12.9 4.53776036,14 C4.53776036,15.1 3.63776036,16 2.53776036,16 C1.43776036,16 0.537760363,15.1 0.537760363,14 C0.537760363,12.9 1.43776036,12 2.53776036,12 L2.53776036,12 Z M2.53776036,10 C1.43776036,10 0.537760363,9.1 0.537760363,8 C0.537760363,6.9 1.43776036,6 2.53776036,6 C3.63776036,6 4.53776036,6.9 4.53776036,8 C4.53776036,9.1 3.63776036,10 2.53776036,10 L2.53776036,10 Z M2.53776036,4 C1.43776036,4 0.537760363,3.1 0.537760363,2 C0.537760363,0.9 1.43776036,-1.13686838e-13 2.53776036,-1.13686838e-13 C3.63776036,-1.13686838e-13 4.53776036,0.9 4.53776036,2 C4.53776036,3.1 3.63776036,4 2.53776036,4 L2.53776036,4 Z" id="Shape" transform="translate(2.537760, 8.000000) scale(1, -1) translate(-2.537760, -8.000000) "></path>
                    </g>
                    <path d="M60.5367602,12.2617187 C60.5367602,13.6549549 60.299583,14.8772734 59.8252217,15.9287109 C59.3508603,16.9801485 58.6729825,17.7874321 57.7915678,18.3505859 C56.9101532,18.9137398 55.8957403,19.1953125 54.7482986,19.1953125 C53.6136776,19.1953125 52.6024697,18.9137398 51.7146448,18.3505859 C50.8268198,17.7874321 50.1409292,16.9850312 49.6569525,15.9433594 C49.1729757,14.9016875 48.9277858,13.7005276 48.9213755,12.3398437 L48.9213755,11.5390625 C48.9213755,10.1523368 49.1633603,8.92839072 49.6473371,7.8671875 C50.1313139,6.80598428 50.8139993,5.99381792 51.695414,5.43066406 C52.5768287,4.86751021 53.5880365,4.5859375 54.7290678,4.5859375 C55.8700992,4.5859375 56.881307,4.86425503 57.7627217,5.42089844 C58.6441364,5.97754185 59.3252193,6.77831509 59.8059909,7.82324219 C60.2867626,8.86816929 60.5303499,10.0839774 60.5367602,11.4707031 L60.5367602,12.2617187 Z M58.1040678,11.5195312 C58.1040678,9.94400254 57.8108016,8.73633232 57.2242602,7.89648437 C56.6377188,7.05663643 55.8059963,6.63671875 54.7290678,6.63671875 C53.6777805,6.63671875 52.8556734,7.05500884 52.2627217,7.89160156 C51.66977,8.72819429 51.3668884,9.91145068 51.3540678,11.4414062 L51.3540678,12.2617187 C51.3540678,13.8242266 51.6537443,15.0318968 52.2531063,15.8847656 C52.8524683,16.7376345 53.6841907,17.1640625 54.7482986,17.1640625 C55.8252271,17.1640625 56.6537444,16.7474 57.2338755,15.9140625 C57.8140066,15.080725 58.1040678,13.8632893 58.1040678,12.2617187 L58.1040678,11.5195312 Z M71.5559909,19 L69.2194525,19 L69.2194525,10.3476562 L65.1617602,10.3476562 L65.1617602,19 L62.8252217,19 L62.8252217,8.43359375 L71.5559909,8.43359375 L71.5559909,19 Z M82.882914,8.43359375 L82.882914,19 L80.5463755,19 L80.5463755,10.3476562 L77.6040678,10.3476562 L77.4117602,14.0292969 C77.2899647,15.8001391 76.9550321,17.0712852 76.4069525,17.8427734 C75.8588728,18.6142617 75.0207402,19 73.8925294,19 L73.1713755,19 L73.1617602,17.0273437 L73.6425294,16.9785156 C74.1553525,16.9069007 74.5287462,16.589521 74.7627217,16.0263672 C74.9966972,15.4632133 75.1457342,14.4362054 75.2098371,12.9453125 L75.4021448,8.43359375 L82.882914,8.43359375 Z M91.5848371,19 C91.4822725,18.7981761 91.3925298,18.4694033 91.3156063,18.0136719 C90.5720128,18.8014362 89.6617655,19.1953125 88.5848371,19.1953125 C87.5399601,19.1953125 86.6874045,18.8925812 86.0271448,18.2871094 C85.3668851,17.6816376 85.0367602,16.9329472 85.0367602,16.0410156 C85.0367602,14.9147079 85.448615,14.0504587 86.2723371,13.4482422 C87.0960591,12.8460256 88.273932,12.5449219 89.8059909,12.5449219 L91.2386832,12.5449219 L91.2386832,11.8515625 C91.2386832,11.3046848 91.0880437,10.8668636 90.7867602,10.5380859 C90.4854766,10.2093083 90.0271478,10.0449219 89.4117602,10.0449219 C88.8797062,10.0449219 88.4438131,10.1800117 88.1040678,10.4501953 C87.7643226,10.720379 87.5944525,11.0638 87.5944525,11.4804687 L85.257914,11.4804687 C85.257914,10.9010388 85.4470147,10.359052 85.8252217,9.85449219 C86.2034287,9.34993237 86.7178466,8.95442852 87.3684909,8.66796875 C88.0191352,8.38150898 88.7450895,8.23828125 89.5463755,8.23828125 C90.7643303,8.23828125 91.7354745,8.54915054 92.4598371,9.17089844 C93.1841997,9.79264634 93.5559908,10.666661 93.5752217,11.7929687 L93.5752217,16.5585937 C93.5752217,17.5091193 93.7066306,18.2675753 93.9694525,18.8339844 L93.9694525,19 L91.5848371,19 Z M89.0175294,17.2910156 C89.4790702,17.2910156 89.9133607,17.1770845 90.320414,16.9492187 C90.7274673,16.721353 91.033554,16.4153665 91.2386832,16.03125 L91.2386832,14.0390625 L89.9790678,14.0390625 C89.1136789,14.0390625 88.4630444,14.1920558 88.0271448,14.4980469 C87.5912452,14.804038 87.3732986,15.2369764 87.3732986,15.796875 C87.3732986,16.2526064 87.5223356,16.6155585 87.820414,16.8857422 C88.1184924,17.1559258 88.5175269,17.2910156 89.0175294,17.2910156 Z M104.055991,10.3183594 L100.680991,10.3183594 L100.680991,19 L98.3444525,19 L98.3444525,10.3183594 L95.007914,10.3183594 L95.007914,8.43359375 L104.055991,8.43359375 L104.055991,10.3183594 Z M111.671376,19 C111.568811,18.7981761 111.479068,18.4694033 111.402145,18.0136719 C110.658551,18.8014362 109.748304,19.1953125 108.671376,19.1953125 C107.626499,19.1953125 106.773943,18.8925812 106.113683,18.2871094 C105.453424,17.6816376 105.123299,16.9329472 105.123299,16.0410156 C105.123299,14.9147079 105.535153,14.0504587 106.358876,13.4482422 C107.182598,12.8460256 108.36047,12.5449219 109.892529,12.5449219 L111.325222,12.5449219 L111.325222,11.8515625 C111.325222,11.3046848 111.174582,10.8668636 110.873299,10.5380859 C110.572015,10.2093083 110.113686,10.0449219 109.498299,10.0449219 C108.966245,10.0449219 108.530352,10.1800117 108.190606,10.4501953 C107.850861,10.720379 107.680991,11.0638 107.680991,11.4804687 L105.344452,11.4804687 C105.344452,10.9010388 105.533553,10.359052 105.91176,9.85449219 C106.289967,9.34993237 106.804385,8.95442852 107.455029,8.66796875 C108.105674,8.38150898 108.831628,8.23828125 109.632914,8.23828125 C110.850869,8.23828125 111.822013,8.54915054 112.546376,9.17089844 C113.270738,9.79264634 113.642529,10.666661 113.66176,11.7929687 L113.66176,16.5585937 C113.66176,17.5091193 113.793169,18.2675753 114.055991,18.8339844 L114.055991,19 L111.671376,19 Z M109.104068,17.2910156 C109.565609,17.2910156 109.999899,17.1770845 110.406952,16.9492187 C110.814006,16.721353 111.120092,16.4153665 111.325222,16.03125 L111.325222,14.0390625 L110.065606,14.0390625 C109.200217,14.0390625 108.549583,14.1920558 108.113683,14.4980469 C107.677784,14.804038 107.459837,15.2369764 107.459837,15.796875 C107.459837,16.2526064 107.608874,16.6155585 107.906952,16.8857422 C108.205031,17.1559258 108.604065,17.2910156 109.104068,17.2910156 Z" id="Оплата"></path>
                    <g id="menu" transform="translate(0.000000, 5.000000)">
                        <path d="M0.499360693,12 L18.4993607,12 L18.4993607,10 L0.499360693,10 L0.499360693,12 L0.499360693,12 Z M0.499360693,7 L18.4993607,7 L18.4993607,5 L0.499360693,5 L0.499360693,7 L0.499360693,7 Z M0.499360693,-1.13686838e-13 L0.499360693,2 L18.4993607,2 L18.4993607,-1.13686838e-13 L0.499360693,-1.13686838e-13 L0.499360693,-1.13686838e-13 Z" id="Shape"></path>
                    </g>
                    <g id="search" transform="translate(234.641369, 2.000000)">
                        <path d="M13.0335762,6.491 L12.2395762,6.491 L11.9635762,6.765 C12.9385762,7.902 13.5315762,9.376 13.5315762,10.991 C13.5315762,14.581 10.6215762,17.491 7.0315762,17.491 C3.4415762,17.491 0.531576201,14.581 0.531576201,10.991 C0.531576201,7.401 3.4415762,4.491 7.0315762,4.491 C8.6465762,4.491 10.1195762,5.083 11.2565762,6.057 L11.5325762,5.783 L11.5325762,4.991 L16.5305762,-1.13686838e-13 L18.0215762,1.491 L13.0335762,6.491 L13.0335762,6.491 Z M7.0315762,6.491 C4.5455762,6.491 2.5315762,8.505 2.5315762,10.991 C2.5315762,13.476 4.5455762,15.491 7.0315762,15.491 C9.5165762,15.491 11.5315762,13.476 11.5315762,10.991 C11.5315762,8.505 9.5165762,6.491 7.0315762,6.491 L7.0315762,6.491 Z" id="Shape" transform="translate(9.276576, 8.745500) scale(1, -1) translate(-9.276576, -8.745500) "></path>
                    </g>
                </g>
            </g>
            <g id="StatusBar/Black" transform="translate(17.000000, 12.000000)">
                <path d="M5.5,11 C2.46243388,11 0,8.53756612 0,5.5 C0,2.46243388 2.46243388,-7.78258807e-16 5.5,0 L5.5,2.51919436 C3.85374651,2.51919436 2.51919436,3.85374651 2.51919436,5.5 C2.51919436,7.14625349 3.85374651,8.48080564 5.5,8.48080564 C7.14625349,8.48080564 8.48080564,7.14625349 8.48080564,5.5 L11,5.5 C11,8.53756612 8.53756612,11 5.5,11 Z" id="Combined-Shape" fill-rule="nonzero"></path>
                <g id="Group" transform="translate(198.410188, 0.000000)">
                    <path d="M51.5898123,1 L51.5898123,0 L54.5898123,0 L54.5898123,1 L56.5898123,1 L56.5898123,11 L49.5898123,11 L49.5898123,1 L51.5898123,1 Z M51.5898123,2 L50.5898123,2 L50.5898123,10 L55.5898123,10 L55.5898123,2 L54.5898123,2 L51.5898123,2 Z M51.5898123,3 L54.5898123,3 L54.5898123,9 L51.5898123,9 L51.5898123,3 Z" id="Combined-Shape" fill-rule="nonzero"></path>
                    <path d="M65.8867176,11.0718749 L64.8695302,11.0718749 L64.8695302,4.32890623 L62.8296864,5.07812496 L62.8296864,4.15937498 L65.7281239,3.07109375 L65.8867176,3.07109375 L65.8867176,11.0718749 Z M74.0679675,11.0718749 L68.8507801,11.0718749 L68.8507801,10.3445311 L71.60703,7.28203118 C72.0153654,6.81900804 72.2970032,6.44257952 72.4519519,6.15273432 C72.6069006,5.86288913 72.6843738,5.56302234 72.6843738,5.25312496 C72.6843738,4.83749789 72.5585938,4.49661589 72.30703,4.23046873 C72.0554663,3.96432157 71.720053,3.83124999 71.3007801,3.83124999 C70.7976525,3.83124999 70.4066408,3.97434751 70.1277332,4.26054685 C69.8488256,4.5467462 69.7093738,4.9450495 69.7093738,5.45546871 L68.6976551,5.45546871 C68.6976551,4.72265256 68.9337204,4.13021057 69.4058582,3.67812499 C69.877996,3.2260394 70.5096303,3 71.3007801,3 C72.0408879,3 72.6260383,3.19413868 73.0562488,3.58242187 C73.4864592,3.97070505 73.7015613,4.48749675 73.7015613,5.13281246 C73.7015613,5.91667054 73.2020871,6.84999452 72.2031238,7.93281242 L70.0703113,10.2460936 L74.0679675,10.2460936 L74.0679675,11.0718749 Z M75.2109362,10.5414061 C75.2109362,10.3664052 75.2628888,10.2205734 75.3667956,10.1039061 C75.4707024,9.98723888 75.6265602,9.92890613 75.8343737,9.92890613 C76.0421873,9.92890613 76.199868,9.98723888 76.3074206,10.1039061 C76.4149732,10.2205734 76.4687487,10.3664052 76.4687487,10.5414061 C76.4687487,10.7091153 76.4149732,10.8494785 76.3074206,10.9624999 C76.199868,11.0755213 76.0421873,11.1320311 75.8343737,11.1320311 C75.6265602,11.1320311 75.4707024,11.0755213 75.3667956,10.9624999 C75.2628888,10.8494785 75.2109362,10.7091153 75.2109362,10.5414061 Z M75.216405,5.71249995 C75.216405,5.53749908 75.2683576,5.39166721 75.3722644,5.27499996 C75.4761711,5.15833271 75.6320289,5.09999996 75.8398425,5.09999996 C76.047656,5.09999996 76.2053367,5.15833271 76.3128893,5.27499996 C76.420442,5.39166721 76.4742175,5.53749908 76.4742175,5.71249995 C76.4742175,5.88020912 76.420442,6.0205723 76.3128893,6.1335937 C76.2053367,6.24661509 76.047656,6.30312494 75.8398425,6.30312494 C75.6320289,6.30312494 75.4761711,6.24661509 75.3722644,6.1335937 C75.2683576,6.0205723 75.216405,5.88020912 75.216405,5.71249995 Z M82.1234361,8.39765616 L83.2281236,8.39765616 L83.2281236,9.22343739 L82.1234361,9.22343739 L82.1234361,11.0718749 L81.1062486,11.0718749 L81.1062486,9.22343739 L77.4804674,9.22343739 L77.4804674,8.62734365 L81.0460924,3.109375 L82.1234361,3.109375 L82.1234361,8.39765616 Z M78.6289049,8.39765616 L81.1062486,8.39765616 L81.1062486,4.49296872 L80.9859361,4.71171872 L78.6289049,8.39765616 Z M89.3585922,11.0718749 L84.1414048,11.0718749 L84.1414048,10.3445311 L86.8976548,7.28203118 C87.3059902,6.81900804 87.587628,6.44257952 87.7425766,6.15273432 C87.8975253,5.86288913 87.9749985,5.56302234 87.9749985,5.25312496 C87.9749985,4.83749789 87.8492185,4.49661589 87.5976548,4.23046873 C87.346091,3.96432157 87.0106777,3.83124999 86.5914048,3.83124999 C86.0882773,3.83124999 85.6972656,3.97434751 85.4183579,4.26054685 C85.1394503,4.5467462 84.9999986,4.9450495 84.9999986,5.45546871 L83.9882798,5.45546871 C83.9882798,4.72265256 84.2243452,4.13021057 84.6964829,3.67812499 C85.1686207,3.2260394 85.800255,3 86.5914048,3 C87.3315126,3 87.916663,3.19413868 88.3468735,3.58242187 C88.777084,3.97070505 88.992186,4.48749675 88.992186,5.13281246 C88.992186,5.91667054 88.4927118,6.84999452 87.4937485,7.93281242 L85.3609361,10.2460936 L89.3585922,10.2460936 L89.3585922,11.0718749 Z" id="12:42"></path>
                    <path d="M22.7164059,11.0773436 L21.6992184,11.0773436 L21.6992184,4.33437498 L19.6593747,5.08359371 L19.6593747,4.16484373 L22.5578121,3.0765625 L22.7164059,3.0765625 L22.7164059,11.0773436 Z M30.673437,7.68124992 C30.673437,8.86615166 30.4710953,9.74661159 30.0664058,10.3226561 C29.6617162,10.8987007 29.0291705,11.1867186 28.1687495,11.1867186 C27.3192661,11.1867186 26.6903662,10.9050808 26.2820308,10.3417967 C25.8736955,9.77851269 25.6622392,8.93724508 25.6476558,7.81796867 L25.6476558,6.46718744 C25.6476558,5.29686911 25.8499976,4.42734657 26.2546871,3.85859374 C26.6593766,3.2898409 27.2937452,3.00546875 28.157812,3.00546875 C29.0145871,3.00546875 29.64531,3.27981496 30.0499995,3.82851561 C30.454689,4.37721626 30.6624994,5.22395257 30.673437,6.36874994 L30.673437,7.68124992 Z M29.6617183,6.29765619 C29.6617183,5.44088109 29.541407,4.81653839 29.3007808,4.42460935 C29.0601546,4.03268031 28.6791688,3.83671874 28.157812,3.83671874 C27.6401011,3.83671874 27.2627612,4.03176887 27.0257808,4.42187498 C26.7888005,4.81198109 26.6666663,5.41171466 26.6593746,6.2210937 L26.6593746,7.83984367 C26.6593746,8.70026462 26.7842431,9.33554472 27.0339839,9.74570301 C27.2837248,10.1558613 27.6619762,10.3609374 28.1687495,10.3609374 C28.6682312,10.3609374 29.039191,10.1677101 29.2816401,9.78124988 C29.5240893,9.39478963 29.6507807,8.78594156 29.6617183,7.95468742 L29.6617183,6.29765619 Z M36.9624994,7.68124992 C36.9624994,8.86615166 36.7601577,9.74661159 36.3554681,10.3226561 C35.9507786,10.8987007 35.3182329,11.1867186 34.4578119,11.1867186 C33.6083285,11.1867186 32.9794286,10.9050808 32.5710932,10.3417967 C32.1627578,9.77851269 31.9513016,8.93724508 31.9367182,7.81796867 L31.9367182,6.46718744 C31.9367182,5.29686911 32.1390599,4.42734657 32.5437495,3.85859374 C32.948439,3.2898409 33.5828076,3.00546875 34.4468744,3.00546875 C35.3036495,3.00546875 35.9343724,3.27981496 36.3390619,3.82851561 C36.7437514,4.37721626 36.9515618,5.22395257 36.9624994,6.36874994 L36.9624994,7.68124992 Z M35.9507807,6.29765619 C35.9507807,5.44088109 35.8304694,4.81653839 35.5898432,4.42460935 C35.349217,4.03268031 34.9682312,3.83671874 34.4468744,3.83671874 C33.9291635,3.83671874 33.5518235,4.03176887 33.3148432,4.42187498 C33.0778629,4.81198109 32.9557287,5.41171466 32.948437,6.2210937 L32.948437,7.83984367 C32.948437,8.70026462 33.0733055,9.33554472 33.3230463,9.74570301 C33.5727872,10.1558613 33.9510386,10.3609374 34.4578119,10.3609374 C34.9572936,10.3609374 35.3282534,10.1677101 35.5707025,9.78124988 C35.8131517,9.39478963 35.9398431,8.78594156 35.9507807,7.95468742 L35.9507807,6.29765619 Z M38.1710931,4.64609372 C38.1710931,4.16848718 38.3233051,3.77474112 38.6277337,3.46484374 C38.9321623,3.15494636 39.323174,3 39.8007806,3 C40.2856788,3 40.6785134,3.15585781 40.9792962,3.46757812 C41.2800789,3.77929842 41.4304681,4.18307042 41.4304681,4.67890622 L41.4304681,5.06718746 C41.4304681,5.54843986 41.278256,5.94127447 40.9738274,6.24570307 C40.6693988,6.55013167 40.2820329,6.70234369 39.8117181,6.70234369 C39.3377574,6.70234369 38.9458342,6.55013167 38.6359369,6.24570307 C38.3260395,5.94127447 38.1710931,5.53567957 38.1710931,5.02890622 L38.1710931,4.64609372 Z M38.9257806,5.06718746 C38.9257806,5.35156388 39.0059881,5.58580633 39.1664056,5.76992183 C39.3268231,5.95403733 39.5419251,6.0460937 39.8117181,6.0460937 C40.0705735,6.0460937 40.2792954,5.95677168 40.43789,5.77812495 C40.5964845,5.59947823 40.6757806,5.35520984 40.6757806,5.04531247 L40.6757806,4.64609372 C40.6757806,4.3617173 40.5973959,4.12656341 40.4406243,3.94062498 C40.2838527,3.75468656 40.0705736,3.66171874 39.8007806,3.66171874 C39.5309876,3.66171874 39.3177085,3.75468656 39.1609369,3.94062498 C39.0041652,4.12656341 38.9257806,4.3690089 38.9257806,4.66796872 L38.9257806,5.06718746 Z M42.0484368,9.1249999 C42.0484368,8.64739335 42.2006488,8.25455874 42.5050774,7.94648429 C42.809506,7.63840984 43.2005177,7.48437492 43.6781243,7.48437492 C44.1557308,7.48437492 44.547654,7.63749839 44.8539055,7.94374992 C45.160157,8.25000144 45.3132805,8.65650779 45.3132805,9.16328115 L45.3132805,9.55156239 C45.3132805,10.0291689 45.1610685,10.4220035 44.8566399,10.730078 C44.5522113,11.0381524 44.1630225,11.1921874 43.6890618,11.1921874 C43.2151011,11.1921874 42.8231779,11.0399753 42.5132805,10.7355467 C42.2033832,10.4311181 42.0484368,10.0255232 42.0484368,9.51874989 L42.0484368,9.1249999 Z M42.8031243,9.55156239 C42.8031243,9.83958466 42.8833318,10.07565 43.0437493,10.2597655 C43.2041668,10.443881 43.4192688,10.5359374 43.6890618,10.5359374 C43.9515631,10.5359374 44.1611964,10.4457039 44.317968,10.2652343 C44.4747396,10.0847646 44.5531243,9.83958477 44.5531243,9.52968739 L44.5531243,9.1249999 C44.5531243,8.83697763 44.4738282,8.60182373 44.3152336,8.41953116 C44.1566391,8.23723858 43.9442714,8.14609366 43.6781243,8.14609366 C43.4192688,8.14609366 43.2087241,8.23632713 43.0464837,8.41679678 C42.8842433,8.59726643 42.8031243,8.84062337 42.8031243,9.1468749 L42.8031243,9.55156239 Z M40.0414056,10.4757811 L39.4671868,10.1148436 L43.355468,3.89140623 L43.9296868,4.25234373 L40.0414056,10.4757811 Z" id="100%"></path>
                    <path d="M9.58981233,11 L7.58981233,11 L7.58981233,4.58333333 L9.58981233,2.75 L9.58981233,11 Z M10.5898123,11 L10.5898123,1.83333333 L12.5898123,0 L12.5898123,11 L10.5898123,11 Z M6.58981233,11 L4.58981233,11 L4.58981233,7.33333333 L6.58981233,5.5 L6.58981233,11 Z M3.58981233,11 L0.589812332,11 L3.58981233,8.25 L3.58981233,11 Z" id="Combined-Shape"></path>
                </g>
            </g>
        </g>
    </g>
</svg>