<?xml version="1.0" encoding="UTF-8"?>
<svg width="320px" height="88px" viewBox="0 0 320 88" version="1.1" xmlns="http://www.w3.org/2000/svg" xmlns:xlink="http://www.w3.org/1999/xlink">
    <!-- Generator: Sketch 49.3 (51167) - http://www.bohemiancoding.com/sketch -->
    <title>assets/iphone_export_status_bar_white_320</title>
    <desc>Created with Sketch.</desc>
    <defs>
        <rect id="path-1" x="0" y="0" width="320" height="88"></rect>
        <filter x="-0.1%" y="-0.3%" width="100.2%" height="101.1%" filterUnits="objectBoundingBox" id="filter-2">
            <feOffset dx="0" dy="0.5" in="SourceAlpha" result="shadowOffsetOuter1"></feOffset>
            <feComposite in="shadowOffsetOuter1" in2="SourceAlpha" operator="out" result="shadowOffsetOuter1"></feComposite>
            <feColorMatrix values="0 0 0 0 0   0 0 0 0 0   0 0 0 0 0  0 0 0 0.25 0" type="matrix" in="shadowOffsetOuter1"></feColorMatrix>
        </filter>
    </defs>
    <g id="assets/iphone_export_status_bar_white_320" stroke="none" stroke-width="1" fill="none" fill-rule="evenodd">
        <g id="iPhone-X/Bars/Navigation/Navigation-Bar---1-Action">
            <g id="Background">
                <use fill="black" fill-opacity="1" filter="url(#filter-2)" xlink:href="#path-1"></use>
                <use fill-opacity="0" fill="#F8F8F8" fill-rule="evenodd" xlink:href="#path-1"></use>
            </g>
            <path d="M136.686035,60 C140.172363,60 142.36377,62.3823242 142.36377,66.1923828 C142.36377,70.0024414 140.172363,72.3764648 136.686035,72.3764648 C133.191406,72.3764648 131,70.0024414 131,66.1923828 C131,62.3823242 133.191406,60 136.686035,60 Z M136.686035,61.8261719 C134.544434,61.8261719 133.191406,63.5195312 133.191406,66.1923828 C133.191406,68.8569336 134.544434,70.550293 136.686035,70.550293 C138.819336,70.550293 140.180664,68.8569336 140.180664,66.1923828 C140.180664,63.5195312 138.819336,61.8261719 136.686035,61.8261719 Z M150.109961,72.1772461 L150.109961,64.972168 L146.474219,64.972168 L146.474219,72.1772461 L144.415625,72.1772461 L144.415625,63.378418 L152.176855,63.378418 L152.176855,72.1772461 L150.109961,72.1772461 Z M157.324902,68.0766602 C157.158887,70.625 156.494824,72.2685547 154.42793,72.2685547 C154.104199,72.2685547 153.863477,72.2104492 153.755566,72.1689453 L153.755566,70.3925781 C153.838574,70.4174805 154.012891,70.4589844 154.245313,70.4589844 C155.100293,70.4589844 155.38252,69.4296875 155.465527,67.96875 L155.747754,63.378418 L162.097852,63.378418 L162.097852,72.1772461 L160.039258,72.1772461 L160.039258,64.972168 L157.532422,64.972168 L157.324902,68.0766602 Z M167.561328,70.7578125 C168.731738,70.7578125 169.669727,69.9775391 169.669727,68.9150391 L169.669727,68.2426758 L167.636035,68.3671875 C166.639941,68.4335938 166.067188,68.8818359 166.067188,69.5791016 C166.067188,70.3012695 166.664844,70.7578125 167.561328,70.7578125 Z M166.93877,72.3183594 C165.237109,72.3183594 164.000293,71.2475586 164.000293,69.6621094 C164.000293,68.1015625 165.203906,67.1635742 167.345508,67.0307617 L169.669727,66.8979492 L169.669727,66.2670898 C169.669727,65.3457031 169.047168,64.8144531 168.026172,64.8144531 C167.04668,64.8144531 166.424121,65.2875977 166.291309,66.0180664 L164.373828,66.0180664 C164.465137,64.3745117 165.867969,63.1958008 168.10918,63.1958008 C170.292285,63.1958008 171.711719,64.3496094 171.711719,66.1176758 L171.711719,72.1772461 L169.719531,72.1772461 L169.719531,70.7744141 L169.678027,70.7744141 C169.17168,71.7290039 168.067676,72.3183594 166.93877,72.3183594 Z M180.694727,63.378418 L180.694727,64.972168 L177.988672,64.972168 L177.988672,72.1772461 L175.938379,72.1772461 L175.938379,64.972168 L173.232324,64.972168 L173.232324,63.378418 L180.694727,63.378418 Z M185.361328,70.7578125 C186.531738,70.7578125 187.469727,69.9775391 187.469727,68.9150391 L187.469727,68.2426758 L185.436035,68.3671875 C184.439941,68.4335938 183.867188,68.8818359 183.867188,69.5791016 C183.867188,70.3012695 184.464844,70.7578125 185.361328,70.7578125 Z M184.73877,72.3183594 C183.037109,72.3183594 181.800293,71.2475586 181.800293,69.6621094 C181.800293,68.1015625 183.003906,67.1635742 185.145508,67.0307617 L187.469727,66.8979492 L187.469727,66.2670898 C187.469727,65.3457031 186.847168,64.8144531 185.826172,64.8144531 C184.84668,64.8144531 184.224121,65.2875977 184.091309,66.0180664 L182.173828,66.0180664 C182.265137,64.3745117 183.667969,63.1958008 185.90918,63.1958008 C188.092285,63.1958008 189.511719,64.3496094 189.511719,66.1176758 L189.511719,72.1772461 L187.519531,72.1772461 L187.519531,70.7744141 L187.478027,70.7744141 C186.97168,71.7290039 185.867676,72.3183594 184.73877,72.3183594 Z" id="Оплата" fill="#FFFFFF"></path>
            <g id="iPhone-X/Status-Bars/Status-Bar-(Black)">
                <rect id="Rectangle" x="0" y="0" width="319.253988" height="44"></rect>
                <g id="Group" transform="translate(249.443782, 20.000000)">
                    <g id="Battery" transform="translate(35.000000, 0.000000)">
                        <rect id="Border" stroke="#FFFFFF" stroke-width="0.899999976" opacity="0.35" x="1.22914766" y="0.449999988" width="19.1" height="9.10000002" rx="2.40000001"></rect>
                        <path d="M21.7791477,3 L21.7791477,6.5999999 C22.5062936,6.29510105 22.9791477,5.58581988 22.9791477,4.79999995 C22.9791477,4.01418002 22.5062936,3.30489886 21.7791477,3" id="Cap" fill="#FFFFFF" fill-rule="nonzero" opacity="0.4"></path>
                        <rect id="Capacity" fill="#FFFFFF" fill-rule="nonzero" x="2.77914768" y="2" width="16" height="6" rx="1.2"></rect>
                    </g>
                    <path d="M24.8729451,2.04959451 C26.8672487,2.04968189 28.7852922,2.81597568 30.2306449,4.19009446 C30.3394838,4.29618158 30.513451,4.29484337 30.6206449,4.18709446 L31.6610449,3.13709448 C31.7153221,3.08244454 31.7455837,3.00841802 31.7451333,2.93139573 C31.7446829,2.85437343 31.7135576,2.7807059 31.6586449,2.72669449 C27.8650569,-0.908898165 21.8802332,-0.908898165 18.0866452,2.72669449 C18.0316925,2.78066582 18.000513,2.85431097 18.0000063,2.93133338 C17.9994995,3.00835578 18.0297074,3.0824048 18.0839452,3.13709448 L19.1246452,4.18709446 C19.2317708,4.29500596 19.4058722,4.29634521 19.5146452,4.19009446 C20.960182,2.81588548 22.8784459,2.04958948 24.8729451,2.04959451 Z M24.8729451,5.46569442 C25.9686854,5.46562728 27.0253231,5.87290647 27.837545,6.60839439 C27.9474019,6.7127769 28.1204552,6.71051389 28.227545,6.60329439 L29.266745,5.55329442 C29.3214717,5.49821894 29.3518372,5.42350425 29.3510478,5.34586596 C29.3502585,5.26822768 29.3183802,5.19414583 29.262545,5.14019443 C26.7891661,2.8394504 22.958824,2.8394504 20.4854452,5.14019443 C20.4295752,5.19414517 20.3976989,5.26826414 20.3969657,5.34592752 C20.3962325,5.42359089 20.4267037,5.49829847 20.4815452,5.55329442 L21.5204452,6.60329439 C21.627535,6.71051389 21.8005882,6.7127769 21.9104451,6.60839439 C22.7221302,5.87339246 23.777929,5.46614812 24.8729451,5.46569442 Z M26.870045,7.97159436 C26.925623,7.91704894 26.9562301,7.84198706 26.95464,7.7641309 C26.95305,7.68627473 26.9194037,7.61252511 26.861645,7.56029437 C25.7136306,6.58929893 24.0322596,6.58929893 22.8842451,7.56029437 C22.8264464,7.61248311 22.792745,7.68620952 22.7910982,7.76406609 C22.7894513,7.84192265 22.820005,7.91700822 22.8755451,7.97159436 L24.6734451,9.78569431 C24.7261402,9.8390094 24.7979832,9.86901418 24.8729451,9.86901418 C24.9479069,9.86901418 25.0197499,9.8390094 25.0724451,9.78569431 L26.870045,7.97159436 Z" id="Wifi" fill="#FFFFFF" fill-rule="nonzero"></path>
                    <path d="M0.666666667,6.0000004 L1.33333333,6.0000004 C1.70152317,6.0000004 2,6.40294411 2,6.90000037 L2,8.70000033 C2,9.19705659 1.70152317,9.6000003 1.33333333,9.6000003 L0.666666667,9.6000003 C0.298476833,9.6000003 -5.32907052e-15,9.19705659 -5.32907052e-15,8.70000033 L-5.32907052e-15,6.90000037 C-5.32907052e-15,6.40294411 0.298476833,6.0000004 0.666666667,6.0000004 Z M4.66666667,4.19999989 L5.33333333,4.19999989 C5.70152317,4.19999989 6,4.6029436 6,5.09999986 L6,8.69999977 C6,9.19705603 5.70152317,9.59999975 5.33333333,9.59999975 L4.66666667,9.59999975 C4.29847683,9.59999975 4,9.19705603 4,8.69999977 L4,5.09999986 C4,4.6029436 4.29847683,4.19999989 4.66666667,4.19999989 Z M8.66666667,2.09999994 L9.33333333,2.09999994 C9.70152317,2.09999994 10,2.50294366 10,2.99999992 L10,8.69999977 C10,9.19705603 9.70152317,9.59999975 9.33333333,9.59999975 L8.66666667,9.59999975 C8.29847683,9.59999975 8,9.19705603 8,8.69999977 L8,2.99999992 C8,2.50294366 8.29847683,2.09999994 8.66666667,2.09999994 Z M12.6666667,2.13162815e-15 L13.3333333,2.13162815e-15 C13.7015232,0 14,0.402943714 14,0.899999976 L14,8.69999977 C14,9.19705603 13.7015232,9.59999975 13.3333333,9.59999975 L12.6666667,9.59999975 C12.2984768,9.59999975 12,9.19705603 12,8.69999977 L12,0.899999976 C12,0.402943714 12.2984768,0 12.6666667,0 Z" id="Cellular-Connection" fill="#FFFFFF" fill-rule="nonzero"></path>
                </g>
                <path d="M28.1800405,29.222168 C26.5042592,29.222168 25.2283803,28.2319336 24.9554311,26.7275391 L26.5867788,26.7275391 C26.7962514,27.4194336 27.4056264,27.8510742 28.1927358,27.8510742 C29.5320913,27.8510742 30.3255483,26.6005859 30.3255483,24.5058594 L30.2176381,24.5058594 C29.7859975,25.3754883 28.9163686,25.8769531 27.8436147,25.8769531 C26.0980092,25.8769531 24.828478,24.5947266 24.828478,22.8300781 C24.828478,20.9511719 26.2376577,19.6118164 28.2308217,19.6118164 C29.5701772,19.6118164 30.6302358,20.246582 31.2459585,21.4208984 C31.6712514,22.1762695 31.8934194,23.1538086 31.8934194,24.3154297 C31.8934194,27.4003906 30.5096303,29.222168 28.1800405,29.222168 Z M28.2371694,24.5756836 C29.2845327,24.5756836 30.0525991,23.8266602 30.0525991,22.8046875 C30.0525991,21.7700195 29.2654897,20.9765625 28.2435171,20.9765625 C27.2215444,20.9765625 26.434435,21.7573242 26.434435,22.7792969 C26.434435,23.8266602 27.1834585,24.5756836 28.2371694,24.5756836 Z M34.5089077,28.0288086 C33.912228,28.0288086 33.4932827,27.597168 33.4932827,27.0258789 C33.4932827,26.4482422 33.912228,26.0229492 34.5089077,26.0229492 C35.111935,26.0229492 35.5245327,26.4482422 35.5245327,27.0258789 C35.5245327,27.597168 35.111935,28.0288086 34.5089077,28.0288086 Z M34.5089077,23.2680664 C33.912228,23.2680664 33.4932827,22.8427734 33.4932827,22.2714844 C33.4932827,21.6938477 33.912228,21.2685547 34.5089077,21.2685547 C35.111935,21.2685547 35.5245327,21.6938477 35.5245327,22.2714844 C35.5245327,22.8427734 35.111935,23.2680664 34.5089077,23.2680664 Z M41.593146,29 L41.593146,27.2924805 L37.1180483,27.2924805 L37.1180483,25.8325195 C37.9432436,24.3154297 39.2318179,22.277832 40.8504702,19.840332 L43.1610171,19.840332 L43.1610171,25.9086914 L44.39881,25.9086914 L44.39881,27.2924805 L43.1610171,27.2924805 L43.1610171,29 L41.593146,29 Z M38.6351382,25.8515625 L38.6351382,25.9467773 L41.6185366,25.9467773 L41.6185366,21.1733398 L41.5296694,21.1733398 C40.6536929,22.4682617 39.7015444,23.9726562 38.6351382,25.8515625 Z M47.8902749,29 L47.8902749,21.4907227 L47.7823647,21.4907227 L45.5035561,23.090332 L45.5035561,21.5161133 L47.8966225,19.840332 L49.5279702,19.840332 L49.5279702,29 L47.8902749,29 Z" id="↳-Time" fill="#FFFFFF"></path>
            </g>
        </g>
    </g>
</svg>
