<?xml version="1.0" encoding="UTF-8"?>
<svg width="375px" height="88px" viewBox="0 0 375 88" version="1.1" xmlns="http://www.w3.org/2000/svg" xmlns:xlink="http://www.w3.org/1999/xlink">
    <!-- Generator: Sketch 48.2 (47327) - http://www.bohemiancoding.com/sketch -->
    <title>assets/iphone_export_status_bar_black</title>
    <desc>Created with Sketch.</desc>
    <defs></defs>
    <g id="assets_export" stroke="none" stroke-width="1" fill="none" fill-rule="evenodd">
        <g id="assets/iphone_export_status_bar_black">
            <g id="iPhone-X/Bars/Navigation/Navigation-Bar---1-Action">
                <rect id="Background" fill-opacity="0" fill="#FFFFFF" x="0" y="0" width="375" height="88"></rect>
                <path d="M163.651318,59.8227539 C167.137646,59.8227539 169.329053,62.2050781 169.329053,66.0151367 C169.329053,69.8251953 167.137646,72.1992188 163.651318,72.1992188 C160.156689,72.1992188 157.965283,69.8251953 157.965283,66.0151367 C157.965283,62.2050781 160.156689,59.8227539 163.651318,59.8227539 Z M163.651318,61.6489258 C161.509717,61.6489258 160.156689,63.3422852 160.156689,66.0151367 C160.156689,68.6796875 161.509717,70.3730469 163.651318,70.3730469 C165.784619,70.3730469 167.145947,68.6796875 167.145947,66.0151367 C167.145947,63.3422852 165.784619,61.6489258 163.651318,61.6489258 Z M177.075244,72 L177.075244,64.7949219 L173.439502,64.7949219 L173.439502,72 L171.380908,72 L171.380908,63.2011719 L179.142139,63.2011719 L179.142139,72 L177.075244,72 Z M184.290186,67.8994141 C184.12417,70.4477539 183.460107,72.0913086 181.393213,72.0913086 C181.069482,72.0913086 180.82876,72.0332031 180.72085,71.9916992 L180.72085,70.215332 C180.803857,70.2402344 180.978174,70.2817383 181.210596,70.2817383 C182.065576,70.2817383 182.347803,69.2524414 182.430811,67.7915039 L182.713037,63.2011719 L189.063135,63.2011719 L189.063135,72 L187.004541,72 L187.004541,64.7949219 L184.497705,64.7949219 L184.290186,67.8994141 Z M194.526611,70.5805664 C195.697021,70.5805664 196.63501,69.800293 196.63501,68.737793 L196.63501,68.0654297 L194.601318,68.1899414 C193.605225,68.2563477 193.032471,68.7045898 193.032471,69.4018555 C193.032471,70.1240234 193.630127,70.5805664 194.526611,70.5805664 Z M193.904053,72.1411133 C192.202393,72.1411133 190.965576,71.0703125 190.965576,69.4848633 C190.965576,67.9243164 192.169189,66.9863281 194.310791,66.8535156 L196.63501,66.7207031 L196.63501,66.0898438 C196.63501,65.168457 196.012451,64.637207 194.991455,64.637207 C194.011963,64.637207 193.389404,65.1103516 193.256592,65.8408203 L191.339111,65.8408203 C191.43042,64.1972656 192.833252,63.0185547 195.074463,63.0185547 C197.257568,63.0185547 198.677002,64.1723633 198.677002,65.9404297 L198.677002,72 L196.684814,72 L196.684814,70.597168 L196.643311,70.597168 C196.136963,71.5517578 195.032959,72.1411133 193.904053,72.1411133 Z M207.66001,63.2011719 L207.66001,64.7949219 L204.953955,64.7949219 L204.953955,72 L202.903662,72 L202.903662,64.7949219 L200.197607,64.7949219 L200.197607,63.2011719 L207.66001,63.2011719 Z M212.326611,70.5805664 C213.497021,70.5805664 214.43501,69.800293 214.43501,68.737793 L214.43501,68.0654297 L212.401318,68.1899414 C211.405225,68.2563477 210.832471,68.7045898 210.832471,69.4018555 C210.832471,70.1240234 211.430127,70.5805664 212.326611,70.5805664 Z M211.704053,72.1411133 C210.002393,72.1411133 208.765576,71.0703125 208.765576,69.4848633 C208.765576,67.9243164 209.969189,66.9863281 212.110791,66.8535156 L214.43501,66.7207031 L214.43501,66.0898438 C214.43501,65.168457 213.812451,64.637207 212.791455,64.637207 C211.811963,64.637207 211.189404,65.1103516 211.056592,65.8408203 L209.139111,65.8408203 C209.23042,64.1972656 210.633252,63.0185547 212.874463,63.0185547 C215.057568,63.0185547 216.477002,64.1723633 216.477002,65.9404297 L216.477002,72 L214.484814,72 L214.484814,70.597168 L214.443311,70.597168 C213.936963,71.5517578 212.832959,72.1411133 211.704053,72.1411133 Z" id="Оплата" fill="#000000"></path>
                <g id="iPhone-X/Status-Bars/Status-Bar-(Black)">
                    <rect id="Rectangle" x="0" y="0" width="375" height="44"></rect>
                    <g id="Group" transform="translate(293.000000, 17.000000)">
                        <g id="Battery" transform="translate(43.000000, 0.000000)">
                            <rect id="Border" stroke="#000000" opacity="0.35" x="0.5" y="0.833333333" width="21" height="10.3333333" rx="2.66666675"></rect>
                            <path d="M23,4 L23,8 C23.8047311,7.66122348 24.328038,6.87313328 24.328038,6 C24.328038,5.12686672 23.8047311,4.33877652 23,4" id="Cap" fill="#000000" fill-rule="nonzero" opacity="0.4"></path>
                            <rect id="Capacity" fill="#000000" fill-rule="nonzero" x="2" y="2.33333333" width="18" height="7.33333333" rx="1.33333337"></rect>
                        </g>
                        <path d="M30.3303333,2.608 C32.5462263,2.60809708 34.6773859,3.45953466 36.2833333,4.98633333 C36.4042654,5.10420792 36.5975623,5.10272102 36.7166667,4.983 L37.8726667,3.81633333 C37.9329747,3.75561117 37.9665987,3.67335948 37.9660983,3.58777915 C37.9655978,3.50219882 37.9310141,3.42034601 37.87,3.36033333 C33.6549022,-0.679214172 27.0050978,-0.679214172 22.79,3.36033333 C22.7289414,3.42030147 22.6942975,3.50212943 22.6937345,3.58770988 C22.6931714,3.67329033 22.7267357,3.75556701 22.787,3.81633333 L23.9433333,4.983 C24.0623618,5.10290168 24.2558078,5.10438973 24.3766667,4.98633333 C25.9828187,3.45943444 28.1142231,2.60799441 30.3303333,2.608 Z M30.3303333,6.40366667 C31.5478226,6.40359207 32.7218645,6.85612452 33.6243333,7.67333333 C33.7463966,7.7893139 33.938678,7.78679945 34.0576667,7.66766667 L35.2123333,6.501 C35.2731408,6.43980502 35.3068803,6.3567887 35.3060032,6.27052393 C35.3051261,6.18425917 35.2697058,6.101946 35.2076667,6.042 C32.4594679,3.48561767 28.2035321,3.48561767 25.4553333,6.042 C25.3932556,6.10194527 25.3578375,6.18429968 25.3570228,6.27059232 C25.3562081,6.35688496 25.3900651,6.43989339 25.451,6.501 L26.6053333,7.66766667 C26.724322,7.78679945 26.9166034,7.7893139 27.0386667,7.67333333 C27.9405389,6.8566645 29.1136488,6.40417078 30.3303333,6.40366667 Z M32.5493333,9.188 C32.6110866,9.12739398 32.6450945,9.04399189 32.6433278,8.95748504 C32.6415611,8.87097819 32.6041763,8.78903416 32.54,8.731 C31.2644284,7.65211615 29.3962383,7.65211615 28.1206667,8.731 C28.0564459,8.7889875 28.0189999,8.87090574 28.01717,8.95741303 C28.0153402,9.04392032 28.0492887,9.12734873 28.111,9.188 L30.1086667,11.2036667 C30.1672168,11.2629057 30.2470424,11.2962443 30.3303333,11.2962443 C30.4136243,11.2962443 30.4934499,11.2629057 30.552,11.2036667 L32.5493333,9.188 Z" id="Wifi" fill="#000000" fill-rule="nonzero"></path>
                        <path d="M1.66666667,7.33333333 L2.66666667,7.33333333 C3.21895142,7.33333333 3.66666667,7.78104858 3.66666667,8.33333333 L3.66666667,10.3333333 C3.66666667,10.8856181 3.21895142,11.3333333 2.66666667,11.3333333 L1.66666667,11.3333333 C1.11438192,11.3333333 0.666666667,10.8856181 0.666666667,10.3333333 L0.666666667,8.33333333 C0.666666667,7.78104858 1.11438192,7.33333333 1.66666667,7.33333333 Z M6.33333333,5.33333333 L7.33333333,5.33333333 C7.88561808,5.33333333 8.33333333,5.78104858 8.33333333,6.33333333 L8.33333333,10.3333333 C8.33333333,10.8856181 7.88561808,11.3333333 7.33333333,11.3333333 L6.33333333,11.3333333 C5.78104858,11.3333333 5.33333333,10.8856181 5.33333333,10.3333333 L5.33333333,6.33333333 C5.33333333,5.78104858 5.78104858,5.33333333 6.33333333,5.33333333 Z M11,3 L12,3 C12.5522847,3 13,3.44771525 13,4 L13,10.3333333 C13,10.8856181 12.5522847,11.3333333 12,11.3333333 L11,11.3333333 C10.4477153,11.3333333 10,10.8856181 10,10.3333333 L10,4 C10,3.44771525 10.4477153,3 11,3 Z M15.6666667,0.666666667 L16.6666667,0.666666667 C17.2189514,0.666666667 17.6666667,1.11438192 17.6666667,1.66666667 L17.6666667,10.3333333 C17.6666667,10.8856181 17.2189514,11.3333333 16.6666667,11.3333333 L15.6666667,11.3333333 C15.1143819,11.3333333 14.6666667,10.8856181 14.6666667,10.3333333 L14.6666667,1.66666667 C14.6666667,1.11438192 15.1143819,0.666666667 15.6666667,0.666666667 Z" id="Cellular-Connection" fill="#000000" fill-rule="nonzero"></path>
                    </g>
                    <path d="M37.7798633,28.7392578 C35.9751758,28.7392578 34.6011523,27.6728516 34.307207,26.0527344 L36.064043,26.0527344 C36.2896289,26.7978516 36.9458789,27.2626953 37.7935352,27.2626953 C39.235918,27.2626953 40.0904102,25.9160156 40.0904102,23.6601562 L39.9741992,23.6601562 C39.5093555,24.5966797 38.572832,25.1367188 37.4175586,25.1367188 C35.5376758,25.1367188 34.1704883,23.7558594 34.1704883,21.8554688 C34.1704883,19.8320312 35.6880664,18.3896484 37.8345508,18.3896484 C39.2769336,18.3896484 40.4185352,19.0732422 41.0816211,20.3378906 C41.5396289,21.1513672 41.7788867,22.2041016 41.7788867,23.4550781 C41.7788867,26.7773438 40.2886523,28.7392578 37.7798633,28.7392578 Z M37.8413867,23.7353516 C38.9693164,23.7353516 39.7964648,22.9287109 39.7964648,21.828125 C39.7964648,20.7138672 38.9488086,19.859375 37.8482227,19.859375 C36.7476367,19.859375 35.8999805,20.7001953 35.8999805,21.8007812 C35.8999805,22.9287109 36.7066211,23.7353516 37.8413867,23.7353516 Z M44.5955664,27.4541016 C43.9529883,27.4541016 43.5018164,26.9892578 43.5018164,26.3740234 C43.5018164,25.7519531 43.9529883,25.2939453 44.5955664,25.2939453 C45.2449805,25.2939453 45.6893164,25.7519531 45.6893164,26.3740234 C45.6893164,26.9892578 45.2449805,27.4541016 44.5955664,27.4541016 Z M44.5955664,22.3271484 C43.9529883,22.3271484 43.5018164,21.8691406 43.5018164,21.2539062 C43.5018164,20.6318359 43.9529883,20.1738281 44.5955664,20.1738281 C45.2449805,20.1738281 45.6893164,20.6318359 45.6893164,21.2539062 C45.6893164,21.8691406 45.2449805,22.3271484 44.5955664,22.3271484 Z M52.2247461,28.5 L52.2247461,26.6611328 L47.4054102,26.6611328 L47.4054102,25.0888672 C48.294082,23.4550781 49.6817773,21.2607422 51.4249414,18.6357422 L53.9132227,18.6357422 L53.9132227,25.1708984 L55.2462305,25.1708984 L55.2462305,26.6611328 L53.9132227,26.6611328 L53.9132227,28.5 L52.2247461,28.5 Z M49.0391992,25.109375 L49.0391992,25.2119141 L52.2520898,25.2119141 L52.2520898,20.0712891 L52.1563867,20.0712891 C51.2130273,21.4658203 50.1876367,23.0859375 49.0391992,25.109375 Z M59.1634961,28.5 L59.1634961,20.4130859 L59.0472852,20.4130859 L56.5931836,22.1357422 L56.5931836,20.4404297 L59.170332,18.6357422 L60.927168,18.6357422 L60.927168,28.5 L59.1634961,28.5 Z" id="↳-Time" fill="#000000"></path>
                </g>
            </g>
        </g>
    </g>
</svg>