<?xml version="1.0" encoding="UTF-8"?>
<svg width="30px" height="30px" viewBox="0 0 30 30" version="1.1" xmlns="http://www.w3.org/2000/svg" xmlns:xlink="http://www.w3.org/1999/xlink">
    <!-- Generator: Sketch 48.2 (47327) - http://www.bohemiancoding.com/sketch -->
    <title>icon/iphone_star</title>
    <desc>Created with Sketch.</desc>
    <defs></defs>
    <g id="assets_export" stroke="none" stroke-width="1" fill="none" fill-rule="evenodd">
        <g id="icon/iphone_star">
            <g id="Resources/Nav-Bar-(1-Action)">
                <g id="Icon-2">
                    <rect id="Rectangle-2" fill-opacity="0" fill="#FFFFFF" x="0" y="0" width="30" height="30"></rect>
                    <path d="M18.6811083,11.5386576 C18.0929315,11.5414243 17.5757448,11.1493842 17.3922711,10.5723544 L15.4136388,4.18506645 C15.3493096,3.9856544 15.1813871,3.85833486 15,3.85833486 C14.8186129,3.85833486 14.6506904,3.9856544 14.5879707,4.17997622 L12.6067039,10.5756201 C12.4241016,11.1498674 11.9062021,11.5420808 11.3200846,11.5386576 L4.88050726,11.5385278 C4.7063715,11.5343825 4.54320455,11.6560561 4.48223563,11.8492968 C4.41847335,12.0513911 4.48593299,12.2731692 4.64064421,12.3912184 L9.85554264,16.365981 C10.3195992,16.7155968 10.5122924,17.3342869 10.3387998,17.8990236 L8.35180728,24.3153272 C8.30627198,24.4679494 8.33281818,24.635064 8.42106236,24.7606849 C8.50381895,24.8784939 8.62921147,24.9438851 8.76424163,24.9415449 C8.85099567,24.9411159 8.93636858,24.9111372 9.01323806,24.8511384 L14.194394,20.9026814 C14.6743154,20.5386263 15.3256846,20.5386263 15.806417,20.9032981 L20.9910802,24.85447 C21.0636314,24.9111372 21.1490043,24.9411159 21.2415589,24.9416103 C21.3707885,24.9438851 21.4961811,24.8784939 21.5789376,24.7606849 C21.6671818,24.635064 21.693728,24.4679494 21.6495743,24.3198718 L19.6608958,17.8980369 C19.4877076,17.3342869 19.6804008,16.7155968 20.142415,16.3675287 L25.3591631,12.3913653 C25.514067,12.2731692 25.5815267,12.0513911 25.5177644,11.8492968 C25.4567955,11.6560561 25.2936285,11.5343825 25.1085852,11.5386576 L18.6811083,11.5386576 Z M18.6811083,11.5386576 L18.6799154,11.5386576 L18.6825861,11.5386498 C18.6820934,11.5386527 18.6816009,11.5386553 18.6811083,11.5386576 Z" id="Star" stroke="#f75f52" stroke-width="0.916666667"></path>
                </g>
            </g>
        </g>
    </g>
</svg>
