<?xml version="1.0" encoding="UTF-8" standalone="no"?>
<svg width="44px" height="35px" viewBox="0 0 44 35" version="1.1" xmlns="http://www.w3.org/2000/svg" xmlns:xlink="http://www.w3.org/1999/xlink">
    <!-- Generator: Sketch 48.2 (47327) - http://www.bohemiancoding.com/sketch -->
    <title>icon/pencil</title>
    <desc>Created with Sketch.</desc>
    <defs></defs>
    <g id="assets_export" stroke="none" stroke-width="1" fill="none" fill-rule="evenodd">
        <g id="icon/pencil">
            <rect id="Rectangle-3" fill-opacity="0" fill="#FFFFFF" x="0" y="0" width="44" height="35"></rect>
            <path d="M21.1713654,5.61556347 L22.1713654,5.61556347 C23.2759349,5.61556347 24.1713654,6.51099397 24.1713654,7.61556347 L24.1713654,23.6155635 L19.1713654,23.6155635 L19.1713654,7.61556347 C19.1713654,6.51099397 20.0667959,5.61556347 21.1713654,5.61556347 Z M21.1713654,6.61556347 C20.6190806,6.61556347 20.1713654,7.06327872 20.1713654,7.61556347 L20.1713654,22.6155635 L23.1713654,22.6155635 L23.1713654,7.61556347 C23.1713654,7.06327872 22.7236501,6.61556347 22.1713654,6.61556347 L21.1713654,6.61556347 Z M24.1713654,25.6155635 L21.6713654,28.6155635 L19.1713654,25.6155635 L24.1713654,25.6155635 Z" id="Combined-Shape" fill-opacity="0.7" fill="#000000" transform="translate(21.671365, 17.115563) rotate(43.000000) translate(-21.671365, -17.115563) "></path>
        </g>
    </g>
</svg>